<svg width="20" height="20" viewBox="0 0 20 20" fill="none" xmlns="http://www.w3.org/2000/svg">
<g clip-path="url(#clip0_172_2796)">
<path d="M17.8371 11.6097C18.7256 7.28154 15.9372 3.0526 11.6091 2.16408C7.28094 1.27557 3.052 4.06394 2.16349 8.39208C1.27497 12.7202 4.06334 16.9492 8.39149 17.8377C12.7196 18.7262 16.9486 15.9378 17.8371 11.6097Z" fill="#002F87"/>
<path d="M10.9629 9.50421C11.3267 9.35612 11.5488 9.12433 11.6937 8.95049C11.9705 8.63178 12.0832 8.24224 12.0832 7.87202C12.0832 7.57262 11.9995 6.97705 11.478 6.5682C11.1174 6.29133 10.7987 6.15612 10.0389 6.15612H9.65261C9.63973 6.15612 9.63007 6.15612 9.61398 6.15612H8.02685V13.6539H12.5597V12.2149C12.5597 10.837 12.1154 9.90984 10.9629 9.50421ZM11.5327 13.2386H10.715V10.7372H9.77172V13.2418H9.0506V6.52956H9.79426C10.0711 6.52956 10.4929 6.59073 10.7922 6.96095C10.9468 7.14767 11.0434 7.39878 11.0755 7.64667H9.77494V8.01689H11.0884C11.0788 8.25512 11.0305 8.52232 10.7955 8.80562C10.5894 9.06316 10.2514 9.30139 9.77494 9.30139C9.77172 9.30139 9.76851 9.30139 9.76529 9.30139V9.67483C11.0401 9.67483 11.5359 10.5215 11.5359 12.0732L11.5327 13.2386ZM3.50694 9.24023L3.13028 9.20803C3.12384 9.26598 3.1174 9.31749 3.11418 9.35934C3.1174 9.31749 3.12384 9.26598 3.13028 9.20803L3.50694 9.24023ZM16.7995 11.3811C16.8317 11.3328 16.8542 11.2781 16.8639 11.2169C16.8542 11.2781 16.8317 11.3328 16.7995 11.3811ZM3.22364 11.0913L3.75482 11.2233L3.22364 11.0913ZM7.58259 3.94767C7.5182 3.74807 7.58581 3.5517 7.74677 3.44546C7.58581 3.5517 7.52142 3.75129 7.58259 3.94767C7.65985 4.18268 7.89486 4.32111 8.13309 4.24385C8.25221 4.20522 8.33913 4.12473 8.38742 4.02172C8.34235 4.12152 8.25543 4.20522 8.13309 4.24385C7.89486 4.32111 7.65985 4.18268 7.58259 3.94767ZM8.30372 15.8205L8.57092 15.8978L8.47434 16.2326L8.57092 15.8978L8.30372 15.8205C8.2683 15.8109 8.23289 15.8044 8.2007 15.8012C8.23289 15.8044 8.2683 15.8109 8.30372 15.8205ZM8.21679 16.3549L8.42283 16.4161L8.32947 16.7412L8.42283 16.4161L8.21679 16.3549C8.18138 16.3453 8.14919 16.3388 8.12022 16.3388C8.14919 16.3388 8.18138 16.3453 8.21679 16.3549ZM8.10734 16.6768C7.96891 16.6382 7.91096 16.5545 7.93671 16.4579C7.91096 16.5545 7.96891 16.635 8.10734 16.6768ZM3.68722 10.7952L3.22364 11.0913L3.68722 10.7952ZM16.0397 10.8982C16.0075 10.9465 15.985 11.0012 15.9753 11.0624C15.985 11.0012 16.0075 10.9465 16.0397 10.8982ZM15.8079 7.42775C15.8176 7.4181 15.8305 7.41166 15.8401 7.402C15.8305 7.41166 15.8176 7.4181 15.8079 7.42775ZM15.8788 7.37624C15.8788 7.37624 15.882 7.37624 15.8788 7.37624C15.882 7.37624 15.8788 7.37624 15.8788 7.37624ZM16.3456 11.5646C16.1299 11.5259 15.9753 11.3618 15.9689 11.1557C15.9721 11.3618 16.1299 11.5259 16.3456 11.5646ZM15.7983 7.44063C15.7822 7.45673 15.7661 7.47282 15.75 7.49214C15.7629 7.47282 15.779 7.45673 15.7983 7.44063ZM16.3037 7.33761C16.4067 7.37946 16.4904 7.46317 16.5355 7.58228C16.6224 7.82051 16.4937 8.05874 16.2619 8.14566C16.2393 8.1521 16.22 8.1521 16.1975 8.15854C16.22 8.1521 16.2393 8.15532 16.2619 8.14566C16.4937 8.05874 16.6224 7.82051 16.5355 7.58228C16.4904 7.46317 16.4067 7.37946 16.3037 7.33761ZM7.81116 15.8366C7.76287 16.0072 7.83692 16.1167 7.96569 16.2068C7.86267 16.2261 7.75321 16.2809 7.71136 16.429C7.68561 16.5159 7.69527 16.5899 7.7339 16.6575C7.78219 16.7477 7.87877 16.8249 8.02042 16.8668L8.484 16.9859L8.83812 15.7722L8.36166 15.6338C8.08802 15.5533 7.87555 15.6177 7.81116 15.8366ZM8.32947 16.7412L8.10734 16.6768C7.96891 16.6382 7.91096 16.5545 7.93671 16.4579C7.96247 16.371 8.03007 16.3356 8.12022 16.3388C8.14919 16.3388 8.18138 16.3453 8.21679 16.3549L8.42283 16.4161L8.32947 16.7412ZM8.47434 16.2358L8.22001 16.1618C8.04939 16.1135 7.98822 16.0265 8.0172 15.9235C8.04295 15.8398 8.10734 15.798 8.2007 15.8044C8.23289 15.8044 8.26508 15.8109 8.30372 15.8237L8.57092 15.901L8.47434 16.2358ZM8.22323 16.1618L8.47434 16.2358L8.22323 16.1618C8.05261 16.1135 7.98822 16.0265 8.02042 15.9235C8.04617 15.8398 8.11056 15.798 8.20392 15.8044C8.11056 15.8012 8.04617 15.8398 8.02042 15.9235C7.98822 16.0265 8.05261 16.1102 8.22323 16.1618ZM7.93671 16.4579C7.96247 16.371 8.03007 16.3356 8.12022 16.3388C8.03007 16.3356 7.96247 16.371 7.93671 16.4579ZM6.60714 15.2893C6.47836 15.5115 6.57172 15.7304 6.81639 15.8752L6.99024 15.9783L6.75844 16.3742L6.94838 16.4869L7.59225 15.3923L7.22846 15.1799C6.97736 15.0221 6.73591 15.0672 6.60714 15.2893ZM7.08681 15.8076L6.91941 15.7111C6.77454 15.6241 6.72625 15.5147 6.79386 15.402C6.82927 15.3408 6.87756 15.3054 6.93551 15.2958C6.99345 15.2861 7.05784 15.3054 7.12867 15.3473L7.29929 15.4471L7.08681 15.8076ZM6.93873 15.2958C6.99667 15.2861 7.06106 15.3054 7.13189 15.3473C7.06106 15.3054 6.99345 15.2893 6.93873 15.2958ZM6.92263 15.7111C6.77776 15.6241 6.72947 15.5147 6.79708 15.402C6.72947 15.5147 6.77776 15.6241 6.92263 15.7111ZM6.60714 14.8032L5.87635 15.843L5.69607 15.7143L6.42686 14.6744L6.60714 14.8032ZM3.25905 9.84868C3.47796 9.86477 3.59708 9.736 3.64215 9.63298L3.86428 9.82292C3.92223 9.87443 3.96408 9.97745 3.93832 10.0451L4.13148 10.0418C4.17977 9.93882 4.1508 9.78751 4.00271 9.66196L3.70331 9.41085L3.71619 9.25632L4.17333 9.29817L4.20553 9.07282L2.94677 8.97302C2.9339 9.04385 2.90492 9.32071 2.9017 9.35934C2.87273 9.70381 3.04013 9.82936 3.25905 9.84868ZM3.13028 9.21125L3.50694 9.24345L3.49406 9.38832C3.4844 9.51709 3.41036 9.62654 3.27836 9.61367C3.17857 9.60723 3.09808 9.54284 3.11418 9.36256C3.1174 9.32071 3.12384 9.2692 3.13028 9.21125ZM5.67354 14.8966C5.40955 15.138 5.00392 15.1412 4.73671 14.8547C4.57897 14.6841 4.52746 14.4716 4.56609 14.2752L4.78822 14.3235C4.75281 14.4587 4.785 14.6036 4.88802 14.7195C5.05865 14.9062 5.32585 14.8966 5.51257 14.7259C5.69285 14.5585 5.72182 14.2881 5.5512 14.1014C5.44174 13.9855 5.29688 13.9436 5.15523 13.9726L5.12303 13.7505C5.32585 13.7215 5.54154 13.7891 5.70573 13.963C5.97293 14.2495 5.94074 14.6519 5.67354 14.8966ZM4.28601 11.3521L3.9673 11.2748C3.94798 11.175 3.93189 11.0785 3.91579 10.9787C3.89969 10.8789 3.88682 10.7791 3.87394 10.6793L4.1508 10.5086L4.1347 10.264L2.94356 11.0269L2.97575 11.233L4.34718 11.5839L4.28601 11.3521ZM3.75804 11.2233L3.22364 11.0913L3.68722 10.7952C3.69688 10.866 3.70653 10.94 3.71941 11.0109C3.72907 11.0817 3.74195 11.1525 3.75804 11.2233ZM3.75804 11.2233C3.74517 11.1525 3.73229 11.0817 3.71941 11.0109C3.70653 10.94 3.69688 10.8692 3.68722 10.7952C3.69688 10.866 3.70653 10.94 3.71941 11.0109C3.72907 11.0817 3.74195 11.1525 3.75804 11.2233ZM4.97172 13.4125L4.01237 13.8825C3.97052 13.8213 3.93189 13.7569 3.89325 13.6958L4.84617 13.2225C4.75925 13.0809 4.67555 12.9392 4.6015 12.7911L3.64859 13.2579C3.61317 13.1903 3.58098 13.1259 3.54879 13.0583L4.5017 12.5915C4.43088 12.4402 4.36649 12.2857 4.30855 12.128L3.35241 12.598C3.32665 12.5271 3.3009 12.4595 3.27514 12.3887L4.2345 11.9155L4.42122 11.8221C4.59506 12.3533 4.83973 12.8555 5.15523 13.3191L4.97172 13.4125ZM15.8788 7.1187C15.5407 7.24425 15.3572 7.6016 15.4924 7.9686C15.6277 8.3356 16.0043 8.49013 16.3423 8.36457C16.6804 8.23902 16.8639 7.88168 16.7287 7.51467C16.5935 7.14767 16.2136 6.99314 15.8788 7.1187ZM16.5355 7.58228C16.6224 7.82051 16.4937 8.05874 16.2619 8.14566C16.2393 8.1521 16.22 8.1521 16.1975 8.15854C15.9818 8.20683 15.7693 8.11669 15.6888 7.90421C15.6341 7.75612 15.6631 7.60803 15.75 7.49536C15.7629 7.47604 15.7822 7.45995 15.7983 7.44385C15.8015 7.44063 15.8047 7.43741 15.8079 7.43097C15.8176 7.42131 15.8305 7.41488 15.8401 7.40522C15.853 7.39556 15.8659 7.3859 15.8788 7.37624C15.8788 7.37624 15.8788 7.37624 15.882 7.37624C15.9077 7.36015 15.9335 7.34727 15.9625 7.33761C16.0816 7.29254 16.2007 7.29576 16.3037 7.33761C16.4067 7.37946 16.4904 7.46317 16.5355 7.58228ZM16.3037 7.33761C16.2007 7.29576 16.0784 7.29254 15.9625 7.33761C15.9335 7.34727 15.9077 7.36015 15.882 7.37624C15.9077 7.36015 15.9335 7.34727 15.9625 7.33761C16.0784 7.29254 16.2007 7.29576 16.3037 7.33761ZM16.1975 8.15532C15.9818 8.20361 15.7693 8.11347 15.6888 7.90099C15.6341 7.7529 15.6631 7.60482 15.75 7.49214C15.6631 7.60482 15.6341 7.7529 15.6888 7.90099C15.7693 8.11347 15.9818 8.20361 16.1975 8.15532ZM15.8788 7.37624C15.8659 7.3859 15.853 7.39556 15.8401 7.40522C15.853 7.39556 15.8659 7.38268 15.8788 7.37624ZM15.8079 7.42775C15.8047 7.43097 15.8015 7.43419 15.7983 7.44063C15.8015 7.43419 15.8047 7.43097 15.8079 7.42775ZM16.5355 10.4861C16.1782 10.4249 15.8401 10.6406 15.7725 11.0237C15.7049 11.4068 15.9528 11.732 16.3037 11.7931C16.6611 11.8543 16.9991 11.6386 17.0667 11.2555C17.1343 10.8724 16.8864 10.5473 16.5355 10.4861ZM16.8639 11.2169C16.8542 11.2781 16.8317 11.336 16.7995 11.3811C16.7029 11.5227 16.5258 11.5968 16.3456 11.5646C16.1299 11.5259 15.9753 11.3618 15.9689 11.1557C15.9689 11.1267 15.9689 11.0946 15.9753 11.0656C15.985 11.0044 16.0075 10.9465 16.0397 10.9014C16.1363 10.7597 16.3134 10.6857 16.4937 10.7179C16.7415 10.7597 16.9089 10.969 16.8639 11.2169ZM16.3456 11.5646C16.5291 11.5968 16.7061 11.5259 16.7995 11.3811C16.7029 11.5227 16.5258 11.5968 16.3456 11.5646ZM16.4937 10.7147C16.3102 10.6825 16.1331 10.7533 16.0397 10.8982C16.1363 10.7533 16.3134 10.6825 16.4937 10.7147ZM15.9657 11.1525C15.9657 11.1235 15.9657 11.0913 15.9721 11.0624C15.9689 11.0946 15.9657 11.1235 15.9657 11.1525ZM14.6007 6.33962L15.6502 5.65069L15.7854 5.83097L15.3444 6.12071L15.4152 6.23017L16.0945 6.30743L16.2297 6.52956L15.457 6.42011L15.3283 6.82896C15.2832 6.97383 15.2832 7.07363 15.354 7.1348L15.1931 7.24103C15.0417 7.11548 15.0611 6.92876 15.1287 6.73882L15.2607 6.36216L15.177 6.23339L14.7359 6.52313L14.6007 6.33962ZM13.5415 14.6937L14.2047 15.7626L14.0212 15.8913L13.7444 15.4406L13.6349 15.5082L13.5415 16.1843L13.3162 16.3163L13.445 15.5469L13.0361 15.402C12.8912 15.3537 12.7914 15.3505 12.7303 15.4181L12.624 15.2571C12.756 15.109 12.9395 15.1316 13.1295 15.2056L13.5029 15.3473L13.6317 15.2668L13.3548 14.8193L13.5415 14.6937ZM14.6908 13.538L15.6212 14.3911L15.4828 14.5618L14.8067 13.9404L15.0128 15.0736L14.855 15.2249L13.9246 14.3718L14.0856 14.2205L14.7681 14.8483L14.5588 13.7054L14.6908 13.538ZM12.3311 15.3923L12.7174 16.5964L12.5114 16.6768L12.2313 15.8044L11.8514 16.8925L11.6389 16.9473L11.2526 15.7432L11.4651 15.6917L11.7484 16.5738L12.1315 15.476L12.3311 15.3923ZM15.5568 11.909L16.6611 12.5561L16.5387 12.8523C16.5387 12.8523 15.6792 12.7589 15.5343 12.7267L15.5311 12.7332C15.6405 12.8265 16.2329 13.4704 16.2329 13.4704L16.0719 13.7441L14.8937 13.2515L15.0192 13.0487L15.4989 13.2547C15.6502 13.3191 15.8305 13.3996 15.985 13.4768L15.9882 13.4704C15.8691 13.361 15.2285 12.6591 15.2285 12.6591L15.3122 12.4885C15.3122 12.4885 16.2393 12.6012 16.4003 12.6366L16.4035 12.6334C16.2554 12.5529 16.0784 12.4563 15.9271 12.3726L15.4796 12.1183L15.5568 11.909ZM15.7693 8.87001L17.0248 8.75089L17.0603 8.97302L16.5291 9.02131H16.5258C16.5419 9.14043 16.558 9.26276 16.5709 9.38188C16.5806 9.50099 16.5902 9.62333 16.5935 9.74566H16.5967L17.1214 9.69737L17.1311 9.9195L15.8755 10.0386L15.8691 9.81327L16.3874 9.76498H16.3939C16.3906 9.64264 16.381 9.52353 16.3713 9.40119C16.3584 9.28208 16.3456 9.15974 16.3263 9.04063H16.3198L15.8015 9.08892L15.7693 8.87001ZM13.9311 5.65391C13.754 5.49294 13.6832 5.27725 13.7122 5.07443L13.9343 5.10663C13.9053 5.24828 13.9472 5.39315 14.0663 5.5026C14.2273 5.65069 14.4526 5.64747 14.6168 5.52514C14.5234 5.42856 14.4269 5.3352 14.3271 5.24506C14.2884 5.20964 14.2466 5.17101 14.2047 5.1356L14.3335 4.98429C14.3753 5.0197 14.4172 5.05834 14.459 5.09697C14.5588 5.18711 14.6554 5.28047 14.7488 5.37705C14.855 5.19999 14.8357 4.98107 14.6747 4.8362C14.5588 4.73319 14.414 4.70421 14.2788 4.73962L14.2305 4.51749C14.4269 4.47564 14.6393 4.52715 14.81 4.68168C15.0997 4.94566 15.1029 5.35129 14.8615 5.61528C14.62 5.88248 14.2208 5.91789 13.9311 5.65391ZM8.19426 4.44023C8.5677 4.32111 8.7351 3.95089 8.62565 3.60964C8.51297 3.26518 8.16207 3.0688 7.79184 3.18791C7.42162 3.31025 7.251 3.68047 7.36046 4.0185C7.47313 4.36296 7.82404 4.56256 8.19426 4.44023ZM7.74677 3.44546C7.77897 3.42292 7.81116 3.40039 7.85301 3.38429C8.09446 3.30703 8.32625 3.44546 8.40351 3.68047C8.44215 3.79958 8.43571 3.92192 8.38742 4.02172C8.34235 4.12152 8.25543 4.20522 8.13309 4.24385C7.89164 4.32111 7.65985 4.18268 7.58259 3.94767C7.5182 3.75129 7.58581 3.5517 7.74677 3.44546ZM7.85301 3.38429C7.81116 3.39717 7.78219 3.42292 7.74677 3.44224C7.77897 3.42292 7.81116 3.39717 7.85301 3.38429C8.09446 3.30703 8.32947 3.44546 8.40351 3.68047C8.44215 3.79958 8.43571 3.92192 8.38742 4.02172C8.43249 3.92192 8.44215 3.79958 8.40351 3.68047C8.32625 3.44546 8.09124 3.30703 7.85301 3.38429ZM6.49124 5.28691L5.8345 4.21488L6.018 4.0861L6.29486 4.53681L6.40432 4.4692L6.50412 3.79315L6.72947 3.66437L6.59426 4.43057L7.00311 4.57544C7.14798 4.62695 7.24778 4.63017 7.30895 4.55934L7.40875 4.72675C7.27675 4.87162 7.09325 4.84908 6.90331 4.77504L6.52987 4.63339L6.39788 4.71387L6.67152 5.16135L6.49124 5.28691ZM4.90734 6.70019L4.09929 6.0016C4.14114 5.94043 4.18299 5.87926 4.22806 5.81809L5.03611 6.51347C5.13269 6.37826 5.23249 6.24626 5.33873 6.12071L4.53712 5.42534C4.58541 5.36739 4.6337 5.31266 4.68199 5.25471L5.4836 5.95009C5.59627 5.82453 5.71217 5.70542 5.8345 5.58952L5.02645 4.89415C5.07796 4.84264 5.13269 4.79113 5.18742 4.73962L5.99547 5.43822L6.15321 5.57343C5.73148 5.94043 5.36448 6.36216 5.06508 6.8354L4.90734 6.70019ZM10.8438 3.89294C10.9436 3.90582 11.0434 3.92192 11.1399 3.94123C11.2365 3.96055 11.3363 3.97987 11.4329 4.0024L11.5005 4.32111L11.7355 4.38872L11.42 3.01085L11.2172 2.97222L10.422 4.14405L10.6603 4.16659L10.8438 3.89294ZM11.2687 3.2523L11.391 3.78671C11.3202 3.77061 11.2494 3.75773 11.1786 3.74164C11.1077 3.72876 11.0369 3.71588 10.9661 3.70622L11.2687 3.2523ZM9.09889 4.20844C9.0506 4.21166 8.97977 4.20522 8.94436 4.202L8.9508 4.0185C8.9669 4.02172 8.99587 4.02494 9.02484 4.02494C9.15362 4.01528 9.26629 3.92514 9.20834 3.16538L9.20512 3.11387L9.18903 2.91427C9.19869 2.91427 9.21156 2.91105 9.22122 2.91105L9.7009 2.87564C9.82001 2.8692 9.94235 2.8692 10.0615 2.8692L10.0776 3.0688L10.158 4.1183L9.93591 4.13439L9.85543 3.07202C9.72665 3.0688 9.6011 3.07524 9.47555 3.0849C9.45301 3.08812 9.4337 3.08812 9.41116 3.09133L9.42082 3.21367C9.48199 4.0185 9.34999 4.18912 9.09889 4.20844ZM10.2578 16.5159C10.2578 16.6575 10.1452 16.7702 10.0035 16.7702C9.86187 16.7702 9.74919 16.6575 9.74919 16.5159C9.74919 16.3742 9.86187 16.2616 10.0035 16.2616C10.1452 16.2616 10.2578 16.3742 10.2578 16.5159ZM3.71297 7.55653C3.72585 7.4181 3.8514 7.31508 3.99305 7.32795C4.13148 7.34083 4.2345 7.46638 4.22162 7.60803C4.20875 7.74647 4.08319 7.84948 3.94154 7.83661C3.79989 7.82051 3.69688 7.69818 3.71297 7.55653ZM12.711 4.0861C12.7753 3.96055 12.9267 3.90904 13.0522 3.97343C13.1778 4.03781 13.2293 4.18912 13.1649 4.31467C13.1005 4.44023 12.9492 4.49174 12.8236 4.42735C12.6981 4.36296 12.6466 4.21166 12.711 4.0861Z" fill="white"/>
</g>
<defs>
<clipPath id="clip0_172_2796">
<rect width="16" height="16" fill="white" transform="translate(2 2)"/>
</clipPath>
</defs>
</svg>
