<svg width="20" height="20" viewBox="0 0 20 20" fill="none" xmlns="http://www.w3.org/2000/svg">
<path d="M18 8.30479L15.3411 7.32947L12.6705 8.30479L10 7.32947L7.34107 8.30479L4.67054 7.32947L2 8.30479V11.6952L4.67054 12.6705L7.34107 11.6952L10 12.6705L12.6705 11.6952L15.3411 12.6705L18 11.6952V8.30479Z" fill="black"/>
<path d="M18 2.97533L15.3411 2L12.6705 2.97533L10 2L7.32946 2.97533L4.67054 2L2 2.97533V6.36575L4.67054 7.32946L7.34107 6.36575L10 7.32946L12.6705 6.36575L15.3411 7.32946L18 6.36575V2.97533Z" fill="#28BE46"/>
<path d="M7.32946 2.97533L4.67054 3.93904L2 2.97533L4.67054 2L7.32946 2.97533Z" fill="black"/>
<path d="M12.6692 2.97533L9.99866 3.93904L7.32812 2.97533L9.99866 2L12.6692 2.97533Z" fill="black"/>
<path d="M18.0013 2.97533L15.3424 3.93904L12.6719 2.97533L15.3424 2L18.0013 2.97533Z" fill="black"/>
<path d="M2 11.6952L4.67054 10.7315L7.32946 11.6952L4.67054 12.6705L2 11.6952Z" fill="#28BE46"/>
<path d="M12.6719 11.6952L15.3424 10.7315L18.0013 11.6952L15.3424 12.6705L12.6719 11.6952Z" fill="#28BE46"/>
<path d="M12.6692 8.30481L9.99866 9.28014L7.32812 8.30481V11.6952L9.99866 12.6706L12.6692 11.6952V8.30481Z" fill="#28BE46"/>
<path d="M18 13.6459L15.3411 12.6705L12.6705 13.6459L10 12.6705L7.34107 13.6459L4.67054 12.6705L2 13.6459V17.0363L4.67054 18L7.34107 17.0363L10 18L12.6705 17.0363L15.3411 18L18 17.0363V13.6459Z" fill="black"/>
<path d="M2 17.0362L4.67054 16.0609L7.32946 17.0362L4.67054 18L2 17.0362Z" fill="#28BE46"/>
<path d="M12.6719 17.0362L15.3424 16.0609L18.0013 17.0362L15.3424 18L12.6719 17.0362Z" fill="#28BE46"/>
<path d="M12.6692 13.6458L9.99866 14.6095L7.32812 13.6458V17.0362L9.99866 17.9999L12.6692 17.0362V13.6458Z" fill="#28BE46"/>
</svg>
