<svg width="20" height="20" viewBox="0 0 20 20" fill="none" xmlns="http://www.w3.org/2000/svg">
<path d="M6.16797 10.6225V5.75323H8.58579V10.7781C8.58579 11.5268 9.08095 12.2951 10.06 12.2951C11.039 12.2951 11.5228 11.5268 11.5228 10.7781V5.75323H13.9406V10.6099C13.9406 12.5503 12.7141 14.4585 10.06 14.4585C7.40588 14.4585 6.16797 12.5517 6.16797 10.6225Z" fill="#0072BC"/>
<path d="M16.3143 2.80897H15.1273L14.3379 3.02489V3.30529H11.7517V3.00806L10.9594 2.70102H10.3171L10.1827 2.62811C10.1888 2.6122 10.1916 2.59525 10.1909 2.57826C10.1903 2.56126 10.1862 2.54457 10.179 2.52916C10.1717 2.51374 10.1614 2.49992 10.1487 2.4885C10.136 2.47709 10.1211 2.4683 10.1049 2.46267V2H10.0059V2.46688C9.98144 2.47743 9.9605 2.49461 9.94549 2.51644C9.93047 2.53826 9.92198 2.56385 9.921 2.59026C9.92247 2.60434 9.92629 2.61808 9.93231 2.63091L9.79084 2.70102H9.12307L8.36759 3.01928V3.29968H5.76444V3.01928L4.98066 2.80897H3.78944L3 3.02489V11.0754C3.00225 12.9112 3.73915 14.6712 5.04907 15.9694C6.35899 17.2675 8.13498 17.9978 9.98749 18H10.1176C11.9702 17.9978 13.7461 17.2675 15.0561 15.9694C16.366 14.6712 17.1029 12.9112 17.1051 11.0754V3.4497V3.02909L16.3143 2.80897ZM16.0978 11.081C16.0945 12.6512 15.4631 14.1561 14.3422 15.2659C13.2213 16.3757 11.7021 16.9999 10.1176 17.0018H9.98749C8.40202 16.9999 6.88203 16.3749 5.76093 15.2639C4.63983 14.1529 4.00918 12.6466 4.00731 11.0754V4.25727H16.0978V11.081Z" fill="#0072BC"/>
<path d="M6.68519 13.7798L7.14641 14.2425L7.02474 14.3603L6.85921 14.1934L6.41639 14.6267L6.28906 14.4977L6.73188 14.0659L6.56494 13.8976L6.68519 13.7798Z" fill="#0072BC"/>
<path d="M7.60514 14.5552C7.65324 14.5823 7.69505 14.6191 7.72786 14.6632C7.76068 14.7073 7.78378 14.7578 7.79565 14.8113C7.80752 14.8649 7.80791 14.9203 7.79678 14.974C7.78565 15.0277 7.76326 15.0785 7.73106 15.123C7.7017 15.1693 7.66306 15.209 7.61753 15.2398C7.57201 15.2706 7.52058 15.2918 7.46644 15.3021C7.41229 15.3123 7.3566 15.3114 7.30282 15.2994C7.24905 15.2874 7.19833 15.2646 7.15384 15.2324C7.10563 15.2054 7.06369 15.1687 7.03073 15.1246C6.99777 15.0806 6.97453 15.0301 6.96252 14.9766C6.95052 14.923 6.95001 14.8676 6.96103 14.8138C6.97205 14.7601 6.99436 14.7092 7.02651 14.6646C7.05575 14.6182 7.0943 14.5783 7.13978 14.5474C7.18525 14.5165 7.23666 14.4951 7.29081 14.4847C7.34495 14.4743 7.40068 14.4751 7.45452 14.487C7.50835 14.4989 7.55915 14.5216 7.60373 14.5538L7.60514 14.5552ZM7.24438 15.0936C7.2698 15.1118 7.29888 15.1245 7.32965 15.1307C7.36043 15.1368 7.39218 15.1364 7.42276 15.1293C7.45334 15.1223 7.48204 15.1088 7.50692 15.0898C7.53179 15.0708 7.55226 15.0468 7.56695 15.0193C7.58572 14.9945 7.59919 14.9661 7.6065 14.936C7.61381 14.9059 7.61482 14.8746 7.60947 14.844C7.60412 14.8135 7.59252 14.7844 7.57538 14.7584C7.55824 14.7325 7.53592 14.7103 7.50981 14.6933C7.4837 14.6762 7.45434 14.6646 7.42354 14.6592C7.39274 14.6538 7.36115 14.6548 7.33072 14.6619C7.30029 14.6691 7.27165 14.6823 7.24659 14.7009C7.22152 14.7194 7.20055 14.7428 7.18496 14.7697C7.16703 14.7947 7.15432 14.823 7.1476 14.853C7.14087 14.8829 7.14026 14.9139 7.1458 14.9441C7.15133 14.9742 7.16291 15.003 7.17984 15.0287C7.19677 15.0544 7.21871 15.0764 7.24438 15.0936Z" fill="#0072BC"/>
<path d="M8.11935 14.8763L8.29195 14.9338L8.41504 15.3249L8.74043 15.0852L8.90313 15.1399L8.64706 15.8829L8.47587 15.8255L8.63857 15.3516L8.33015 15.5717L8.3061 15.5633L8.19575 15.2058L8.03447 15.6768L7.86328 15.618L8.11935 14.8763Z" fill="#0072BC"/>
<path d="M9.11901 15.388C9.12386 15.3565 9.13519 15.3263 9.15229 15.2993C9.16939 15.2723 9.1919 15.2491 9.21842 15.2311C9.24494 15.2131 9.27491 15.2007 9.30647 15.1946C9.33803 15.1886 9.37051 15.189 9.40189 15.1959C9.44464 15.1991 9.48627 15.211 9.52422 15.2307C9.56217 15.2505 9.59563 15.2778 9.62254 15.3108L9.50939 15.4328C9.49695 15.4141 9.48047 15.3984 9.46115 15.3867C9.44183 15.3751 9.42014 15.3678 9.39765 15.3655C9.34815 15.3655 9.31561 15.3781 9.31137 15.4132C9.2944 15.5422 9.62679 15.5534 9.59425 15.8058C9.58822 15.8383 9.57561 15.8693 9.55717 15.8969C9.53873 15.9245 9.51486 15.9481 9.48698 15.9663C9.45909 15.9845 9.42779 15.9969 9.39493 16.0028C9.36208 16.0087 9.32836 16.008 9.29581 16.0006C9.24368 15.9978 9.19323 15.9814 9.14952 15.9531C9.10582 15.9248 9.07041 15.8856 9.04688 15.8394L9.16427 15.7315C9.18115 15.7591 9.20397 15.7828 9.2311 15.8007C9.25824 15.8186 9.28902 15.8304 9.32127 15.8352C9.36795 15.8352 9.39765 15.8212 9.40331 15.7847C9.41887 15.6684 9.08931 15.6445 9.12042 15.3894" fill="#0072BC"/>
<path d="M9.90625 15.2535L10.0873 15.2493L10.0958 15.5914L10.3461 15.2436L10.564 15.238L10.2754 15.6068L10.6064 16.0232L10.3758 16.0274L10.0972 15.6615L10.1057 16.0344L9.92464 16.0386L9.90625 15.2535Z" fill="#0072BC"/>
<path d="M11.0916 15.5081L10.7969 15.5544L10.8217 15.7095L11.1165 15.6632L11.0916 15.5081Z" fill="#0072BC"/>
<path d="M11.4063 15.0739L11.5237 15.0417L11.7401 15.796L11.5774 15.8423L11.4275 15.3165L11.3652 15.3908L11.2422 15.2814L11.4063 15.0739Z" fill="#0072BC"/>
<path d="M12.0132 15.4932C11.9933 15.457 11.985 15.4156 11.9893 15.3746C11.9936 15.3335 12.0103 15.2947 12.0372 15.2633C11.9996 15.2604 11.9636 15.2471 11.9331 15.2251C11.9026 15.2031 11.8789 15.1731 11.8647 15.1385C11.8527 15.0789 11.8612 15.017 11.8889 14.9628C11.9165 14.9085 11.9617 14.865 12.0172 14.8392C12.0727 14.8134 12.1354 14.8067 12.1951 14.8203C12.2549 14.8339 12.3084 14.867 12.347 14.9142C12.3636 14.9485 12.3702 14.9867 12.3662 15.0246C12.3622 15.0625 12.3477 15.0985 12.3243 15.1287C12.3653 15.1221 12.4073 15.1295 12.4435 15.1496C12.4797 15.1697 12.508 15.2014 12.5238 15.2395C12.5874 15.3797 12.5153 15.4988 12.3654 15.5689C12.2154 15.639 12.0712 15.6152 12.0132 15.4946V15.4932ZM12.1546 15.1133C12.1639 15.1096 12.1723 15.1041 12.1793 15.0971C12.1863 15.0901 12.1918 15.0817 12.1954 15.0725C12.199 15.0633 12.2006 15.0534 12.2002 15.0435C12.1997 15.0337 12.1972 15.024 12.1928 15.0151C12.1744 14.9759 12.1362 14.9647 12.0839 14.9885C12.0316 15.0123 12.0217 15.053 12.0386 15.0866C12.0428 15.0959 12.0489 15.1042 12.0565 15.111C12.0641 15.1177 12.0731 15.1228 12.0829 15.1259C12.0927 15.1289 12.103 15.1299 12.1132 15.1287C12.1233 15.1275 12.1331 15.1241 12.1419 15.1189L12.1546 15.1133ZM12.214 15.2717C12.2025 15.2754 12.1918 15.2815 12.1828 15.2895C12.1737 15.2975 12.1664 15.3072 12.1614 15.3182C12.1563 15.3291 12.1536 15.341 12.1534 15.353C12.1532 15.365 12.1556 15.377 12.1603 15.3881C12.1787 15.4273 12.2225 15.4498 12.289 15.4175C12.3555 15.3853 12.3682 15.3376 12.3484 15.2997C12.3433 15.2888 12.3358 15.2792 12.3266 15.2713C12.3174 15.2635 12.3066 15.2578 12.2949 15.2544C12.2832 15.2511 12.271 15.2503 12.259 15.2521C12.247 15.2539 12.2355 15.2581 12.2253 15.2647L12.214 15.2717Z" fill="#0072BC"/>
<path d="M12.418 14.6422L12.8395 14.3408L12.9074 14.4333L13.0856 15.1315L12.9356 15.2395L12.7744 14.5945L12.517 14.7782L12.418 14.6422Z" fill="#0072BC"/>
<path d="M13.3968 14.6323C13.3651 14.6053 13.3425 14.5693 13.3319 14.5293C13.3213 14.4892 13.3232 14.4469 13.3373 14.408C13.3011 14.4181 13.2628 14.4181 13.2266 14.408C13.1904 14.3978 13.1577 14.3779 13.1322 14.3505C13.0994 14.299 13.085 14.238 13.0913 14.1774C13.0976 14.1168 13.1243 14.0601 13.167 14.0163C13.2097 13.9725 13.266 13.9442 13.3269 13.9359C13.3879 13.9276 13.4498 13.9398 13.5029 13.9706C13.5307 13.9969 13.5505 14.0304 13.5603 14.0673C13.57 14.1042 13.5692 14.143 13.558 14.1795C13.5941 14.1589 13.636 14.151 13.6771 14.1571C13.7183 14.1632 13.7561 14.183 13.7844 14.2131C13.8087 14.2382 13.8273 14.2682 13.839 14.301C13.8506 14.3338 13.855 14.3687 13.852 14.4034C13.8489 14.4381 13.8384 14.4717 13.8211 14.5019C13.8038 14.5322 13.7802 14.5585 13.7519 14.579C13.6373 14.6968 13.493 14.7192 13.3968 14.6323ZM13.3968 14.2243C13.4041 14.2176 13.4099 14.2095 13.4139 14.2004C13.4179 14.1914 13.42 14.1816 13.42 14.1717C13.42 14.1619 13.4179 14.1521 13.4139 14.143C13.4099 14.134 13.4041 14.1259 13.3968 14.1192C13.3642 14.0883 13.326 14.0911 13.285 14.1332C13.2767 14.1394 13.2699 14.1473 13.265 14.1563C13.2601 14.1653 13.2572 14.1753 13.2565 14.1856C13.2559 14.1958 13.2574 14.2061 13.2611 14.2157C13.2648 14.2253 13.2705 14.2339 13.2779 14.2411C13.2847 14.2486 13.293 14.2546 13.3022 14.2587C13.3115 14.2628 13.3215 14.265 13.3317 14.265C13.3418 14.265 13.3519 14.2628 13.3611 14.2587C13.3704 14.2546 13.3787 14.2486 13.3854 14.2411L13.3968 14.2243ZM13.5099 14.3505C13.5003 14.358 13.4923 14.3675 13.4866 14.3783C13.4809 14.3891 13.4775 14.401 13.4767 14.4131C13.4759 14.4253 13.4777 14.4375 13.482 14.4489C13.4862 14.4604 13.4929 14.4708 13.5015 14.4795C13.5326 14.5103 13.5807 14.5159 13.633 14.4627C13.6854 14.4094 13.6783 14.3603 13.6472 14.3309C13.6384 14.3226 13.628 14.3162 13.6166 14.3123C13.6051 14.3083 13.593 14.3068 13.5809 14.3078C13.5689 14.3089 13.5572 14.3125 13.5466 14.3184C13.5361 14.3243 13.527 14.3324 13.5198 14.3421L13.5099 14.3505Z" fill="#0072BC"/>
</svg>
