<svg id="all" viewBox="0 0 20 20" xmlns="http://www.w3.org/2000/svg">
<path d="M2.5 6.16667V3C2.5 2.72386 2.72386 2.5 3 2.5H7.83333C8.10947 2.5 8.33333 2.72386 8.33333 3V6.16667C8.33333 6.44281 8.10947 6.66667 7.83333 6.66667H3C2.72386 6.66667 2.5 6.44281 2.5 6.16667Z" />
<path d="M11.6666 17V13.8333C11.6666 13.5571 11.8905 13.3333 12.1666 13.3333H17C17.2761 13.3333 17.5 13.5571 17.5 13.8333V17C17.5 17.2761 17.2761 17.5 17 17.5H12.1666C11.8905 17.5 11.6666 17.2761 11.6666 17Z" />
<path d="M11.6666 10.3333V3C11.6666 2.72386 11.8905 2.5 12.1666 2.5H17C17.2761 2.5 17.5 2.72386 17.5 3V10.3333C17.5 10.6095 17.2761 10.8333 17 10.8333H12.1666C11.8905 10.8333 11.6666 10.6095 11.6666 10.3333Z" />
<path d="M2.5 17V9.66669C2.5 9.39052 2.72386 9.16669 3 9.16669H7.83333C8.10947 9.16669 8.33333 9.39052 8.33333 9.66669V17C8.33333 17.2762 8.10947 17.5 7.83333 17.5H3C2.72386 17.5 2.5 17.2762 2.5 17Z" />
</svg>
