<svg id="clipboard" viewBox="0 0 20 20" xmlns="http://www.w3.org/2000/svg">
<path d="M7.08337 3.33331H5.00004C4.07957 3.33331 3.33337 4.0795 3.33337 4.99998V16.6666C3.33337 17.5871 4.07957 18.3333 5.00004 18.3333H10" stroke-linecap="round"/>
<path d="M12.9166 3.33331H15C15.9205 3.33331 16.6666 4.0795 16.6666 4.99998V12.5" stroke-linecap="round"/>
<path d="M6.66663 5.33331V3.74998C6.66663 3.51986 6.85318 3.33331 7.08329 3.33331C7.31341 3.33331 7.50348 3.14668 7.54289 2.91996C7.66636 2.20974 8.14495 0.833313 9.99996 0.833313C11.855 0.833313 12.3335 2.20974 12.457 2.91996C12.4965 3.14668 12.6865 3.33331 12.9166 3.33331C13.1467 3.33331 13.3333 3.51986 13.3333 3.74998V5.33331C13.3333 5.60945 13.1095 5.83331 12.8333 5.83331H7.16663C6.89048 5.83331 6.66663 5.60945 6.66663 5.33331Z"  stroke-linecap="round"/>
<path d="M12.9166 17.0833L14.5833 18.75L18.75 14.5833"  stroke-linecap="round" stroke-linejoin="round"/>
</svg>
