<svg id="cube" viewBox="0 0 20 20" xmlns="http://www.w3.org/2000/svg">
<path d="M17.5 6.12753V13.8725C17.5 14.0541 17.4016 14.2213 17.2429 14.3096L10.2429 18.1984C10.0919 18.2823 9.90818 18.2823 9.75718 18.1984L2.75719 14.3096C2.59847 14.2213 2.50002 14.0541 2.50002 13.8725L2.5 6.12753C2.5 5.94595 2.59845 5.77864 2.75718 5.69046L9.75718 1.80157C9.90818 1.71767 10.0919 1.71767 10.2429 1.80157L17.2429 5.69046C17.4015 5.77864 17.5 5.94595 17.5 6.12753Z"  stroke-linecap="round" stroke-linejoin="round"/>
<path d="M2.94031 6.07799L9.75711 9.86509C9.90811 9.94901 10.0918 9.94901 10.2428 9.86509L17.0833 6.06482"  stroke-linecap="round" stroke-linejoin="round"/>
<path d="M10 17.5V10"  stroke-linecap="round" stroke-linejoin="round"/>
</svg>
