<svg width="16" height="17" viewBox="0 0 16 17" fill="none" xmlns="http://www.w3.org/2000/svg">
<path d="M6.66797 9.16666C6.95427 9.54942 7.31954 9.86612 7.739 10.0953C8.15846 10.3245 8.62231 10.4607 9.09907 10.4949C9.57583 10.529 10.0544 10.4602 10.5022 10.2932C10.95 10.1261 11.3567 9.86471 11.6946 9.52666L13.6946 7.52666C14.3018 6.89799 14.6378 6.05598 14.6302 5.18199C14.6226 4.308 14.2721 3.47196 13.654 2.85394C13.036 2.23591 12.2 1.88535 11.326 1.87775C10.452 1.87016 9.60998 2.20614 8.9813 2.81333L7.83464 3.95333" stroke="#28BE46" stroke-width="1.5" stroke-linecap="round" stroke-linejoin="round"/>
<path d="M9.33347 7.83334C9.04716 7.45058 8.68189 7.13388 8.26243 6.90471C7.84297 6.67554 7.37913 6.53926 6.90237 6.50511C6.4256 6.47097 5.94707 6.53976 5.49924 6.70681C5.0514 6.87387 4.64472 7.13529 4.3068 7.47334L2.3068 9.47334C1.69961 10.102 1.36363 10.944 1.37122 11.818C1.37881 12.692 1.72938 13.528 2.3474 14.1461C2.96543 14.7641 3.80147 15.1147 4.67546 15.1222C5.54945 15.1298 6.39146 14.7939 7.02013 14.1867L8.16013 13.0467" stroke="#28BE46" stroke-width="1.5" stroke-linecap="round" stroke-linejoin="round"/>
</svg>
