<svg id="moon" viewBox="0 0 16 16" fill="none" xmlns="http://www.w3.org/2000/svg">
<path d="M13.9997 8.52667C13.8948 9.66147 13.4689 10.7429 12.7719 11.6445C12.0748 12.5461 11.1354 13.2305 10.0635 13.6177C8.99163 14.0049 7.83168 14.0787 6.71936 13.8307C5.60703 13.5827 4.58835 13.023 3.78251 12.2172C2.97666 11.4113 2.41698 10.3927 2.16896 9.28033C1.92094 8.16801 1.99483 7.00806 2.382 5.9362C2.76916 4.86434 3.45358 3.92491 4.35517 3.22784C5.25675 2.53076 6.33822 2.10487 7.47302 2C6.80863 2.89884 6.48892 4.0063 6.57204 5.12094C6.65517 6.23559 7.1356 7.28337 7.92596 8.07373C8.71632 8.86409 9.7641 9.34452 10.8787 9.42765C11.9934 9.51077 13.1008 9.19106 13.9997 8.52667Z"  stroke-linecap="round" stroke-linejoin="round"/>
</svg>
