<svg id="quote" width="40" height="34" viewBox="0 0 40 34" fill="none" xmlns="http://www.w3.org/2000/svg">
<path d="M12.2995 16.412C13.8681 17.0556 15.0802 18.0925 15.9358 19.5227C16.8627 20.8815 17.3262 22.5262 17.3262 24.4571C17.3262 27.0315 16.5062 29.1411 14.8663 30.7859C13.2264 32.4306 11.1943 33.253 8.77005 33.253C6.20321 33.253 4.09982 32.4306 2.45989 30.7859C0.819964 29.1411 0 27.0315 0 24.4571C0 23.1698 0.142603 21.9184 0.427808 20.7027C0.784314 19.487 1.42602 17.6634 2.35294 15.232L8.02139 0H16.5775L12.2995 16.412ZM34.9733 16.412C36.5419 17.0556 37.754 18.0925 38.6096 19.5227C39.5365 20.8815 40 22.5262 40 24.4571C40 27.0315 39.18 29.1411 37.5401 30.7859C35.9002 32.4306 33.8681 33.253 31.4439 33.253C28.877 33.253 26.7736 32.4306 25.1337 30.7859C23.4938 29.1411 22.6738 27.0315 22.6738 24.4571C22.6738 23.1698 22.8164 21.9184 23.1016 20.7027C23.4581 19.487 24.0998 17.6634 25.0267 15.232L30.6952 0H39.2513L34.9733 16.412Z" fill="#28BE46"/>
</svg>
