<svg id="share" viewBox="0 0 24 24" xmlns="http://www.w3.org/2000/svg">
<path d="M16.2218 8.8C17.5718 8.8 18.6662 7.72548 18.6662 6.4C18.6662 5.07452 17.5718 4 16.2218 4C14.8718 4 13.7773 5.07452 13.7773 6.4C13.7773 7.72548 14.8718 8.8 16.2218 8.8Z" stroke-linecap="round" stroke-linejoin="round"/>
<path d="M6.44444 14.4001C7.79447 14.4001 8.88889 13.3256 8.88889 12.0001C8.88889 10.6746 7.79447 9.6001 6.44444 9.6001C5.09442 9.6001 4 10.6746 4 12.0001C4 13.3256 5.09442 14.4001 6.44444 14.4001Z" stroke-linecap="round" stroke-linejoin="round"/>
<path d="M16.2218 20C17.5718 20 18.6662 18.9254 18.6662 17.6C18.6662 16.2745 17.5718 15.2 16.2218 15.2C14.8718 15.2 13.7773 16.2745 13.7773 17.6C13.7773 18.9254 14.8718 20 16.2218 20Z" stroke-linecap="round" stroke-linejoin="round"/>
<path d="M8.55469 13.2078L14.1199 16.3918" stroke-linecap="round" stroke-linejoin="round"/>
<path d="M14.1117 7.60791L8.55469 10.7919" stroke-linecap="round" stroke-linejoin="round"/>
</svg>
