<svg id="t" viewBox="0 0 20 20" xmlns="http://www.w3.org/2000/svg">
<g clip-path="url(#clip0_8_14761)">
<path d="M17.954 6.78161V3.04598L15.0575 2L12.5172 2.91954L9.97701 2L7.43678 2.91954L4.89655 2L2 3.05747V6.7931L3.85057 7.47126L2 8.13793V11.8736L3.85057 12.5517L2 13.2069V16.9425L4.89655 18L7.43678 17.0805L9.97701 18L12.5172 17.0805L15.0575 18L17.954 16.9425V13.2069L16.1034 12.5287L17.954 11.8506V8.13793L16.1034 7.45977L17.954 6.78161ZM12.5172 6.91954L14.0115 7.45977L12.5172 8L11.023 7.45977L12.5172 6.91954ZM9.97701 2.37931L12.5172 3.29885L9.97701 4.21839L7.43678 3.29885L9.97701 2.37931ZM7.43678 6.91954L8.93103 7.45977L7.43678 8L5.94253 7.45977L7.43678 6.91954ZM2.35632 3.31034L4.89655 2.3908L7.43678 3.31034L4.89655 4.22989L2.35632 3.31034ZM2.35632 11.6092V8.37931L4.89655 7.45977L7.43678 8.37931L9.97701 7.45977L12.5172 8.37931L9.97701 9.29885L7.43678 8.37931V11.6092L4.89655 10.6897L2.35632 11.6092ZM12.5172 12L14.0115 12.5402L12.5172 13.0805L11.023 12.5402L12.5172 12ZM8.93103 12.5402L7.43678 13.0805L5.94253 12.5402L7.43678 12L8.93103 12.5402ZM7.43678 16.6897L4.89655 15.7701L2.35632 16.6897V13.4598L4.89655 12.5402L7.43678 13.4598V16.6897ZM9.97701 14.3908L7.43678 13.4713L9.97701 12.5517L12.5172 13.4713L9.97701 14.3908ZM17.5977 13.4598V16.6897L15.0575 15.7701L12.5172 16.6897V13.4598L15.0575 12.5402L17.5977 13.4598ZM17.5977 8.37931V11.6092L15.0575 10.6897L12.5172 11.6092V8.37931L15.0575 7.45977L17.5977 8.37931ZM15.0575 4.22989L12.5172 3.31034L15.0575 2.3908L17.5977 3.31034L15.0575 4.22989Z" />
</g>
<defs>
<clipPath id="clip0_8_14761">
<rect width="15.954" height="16" fill="white" transform="translate(2 2)"/>
</clipPath>
</defs>
</svg>
