<svg id="vk" viewBox="0 0 24 24" xmlns="http://www.w3.org/2000/svg">
<path d="M22.4558 16.8151C22.4298 16.7579 22.4057 16.7105 22.3832 16.6725C22.0114 15.9879 21.3009 15.1476 20.2522 14.1514L20.2301 14.1285L20.219 14.1174L20.2077 14.1059H20.1965C19.7205 13.642 19.4191 13.3301 19.2929 13.1704C19.0619 12.8662 19.0102 12.5582 19.1364 12.2463C19.2256 12.0105 19.5606 11.5127 20.1406 10.7521C20.4456 10.349 20.6873 10.0259 20.8657 9.78255C22.1526 8.03338 22.7105 6.91564 22.5393 6.42889L22.4728 6.31514C22.4282 6.24666 22.3129 6.18401 22.1272 6.12688C21.941 6.06986 21.703 6.06043 21.4129 6.09843L18.1998 6.12112C18.1477 6.10227 18.0734 6.10402 17.9766 6.12688C17.8798 6.14973 17.8315 6.1612 17.8315 6.1612L17.7755 6.18976L17.7312 6.22408C17.694 6.24678 17.653 6.28669 17.6084 6.34375C17.5639 6.4006 17.5268 6.46732 17.4971 6.54335C17.1473 7.46352 16.7495 8.31905 16.3031 9.10989C16.0279 9.58147 15.7752 9.99015 15.5443 10.3362C15.3138 10.6821 15.1204 10.937 14.9643 11.1003C14.808 11.2639 14.667 11.3949 14.5403 11.4938C14.4138 11.5928 14.3172 11.6347 14.2504 11.6194C14.1833 11.6041 14.1202 11.5889 14.0605 11.5737C13.9564 11.5052 13.8727 11.4121 13.8096 11.2942C13.7462 11.1764 13.7035 11.028 13.6812 10.8493C13.659 10.6705 13.6459 10.5167 13.6422 10.3873C13.6387 10.2582 13.6403 10.0755 13.6478 9.83973C13.6556 9.60388 13.659 9.4443 13.659 9.36064C13.659 9.07162 13.6645 8.75794 13.6756 8.41953C13.6869 8.08113 13.696 7.813 13.7036 7.61547C13.7112 7.41774 13.7147 7.20854 13.7147 6.988C13.7147 6.76745 13.7015 6.59449 13.6756 6.46896C13.65 6.34359 13.6106 6.22189 13.5588 6.1039C13.5066 5.98604 13.4302 5.89487 13.33 5.83014C13.2296 5.7655 13.1048 5.7142 12.9563 5.67608C12.562 5.58487 12.06 5.53552 11.45 5.52785C10.0666 5.51267 9.17769 5.604 8.78347 5.80173C8.62728 5.88528 8.48594 5.99943 8.35956 6.14382C8.22564 6.31118 8.20696 6.40252 8.30364 6.41754C8.74999 6.4859 9.06597 6.64943 9.25194 6.90797L9.31896 7.04497C9.37108 7.14382 9.42314 7.31881 9.47523 7.56972C9.52724 7.82063 9.56081 8.09819 9.57558 8.40223C9.6127 8.95747 9.6127 9.43276 9.57558 9.82814C9.53834 10.2237 9.50317 10.5316 9.4696 10.7521C9.43603 10.9727 9.38586 11.1514 9.31896 11.2882C9.25194 11.4251 9.20735 11.5088 9.185 11.5392C9.16268 11.5695 9.14408 11.5887 9.12931 11.5962C9.03263 11.634 8.93209 11.6533 8.82802 11.6533C8.7238 11.6533 8.59743 11.6 8.4487 11.4935C8.30001 11.387 8.14569 11.2407 7.98574 11.0544C7.8258 10.868 7.64542 10.6075 7.44452 10.2729C7.24378 9.93837 7.03549 9.54295 6.81979 9.08668L6.64132 8.75578C6.52975 8.54291 6.37735 8.23295 6.18395 7.82618C5.99044 7.41926 5.8194 7.02563 5.67071 6.6454C5.61127 6.4857 5.52198 6.36412 5.40299 6.28046L5.34714 6.24614C5.31002 6.21577 5.25043 6.18353 5.16868 6.14917C5.08681 6.11485 5.00139 6.09024 4.91205 6.0751L1.85505 6.09779C1.54267 6.09779 1.33071 6.17015 1.2191 6.31466L1.17444 6.38302C1.15212 6.4211 1.14087 6.4819 1.14087 6.56561C1.14087 6.64927 1.16318 6.75195 1.20785 6.87353C1.65411 7.94588 2.13942 8.98008 2.66376 9.97629C3.18811 10.9725 3.64375 11.775 4.03042 12.383C4.41718 12.9914 4.81139 13.5657 5.21307 14.1055C5.61475 14.6454 5.88063 14.9915 6.01072 15.1435C6.14097 15.2958 6.24327 15.4097 6.31764 15.4857L6.59661 15.7594C6.77512 15.942 7.03725 16.1606 7.38313 16.4153C7.72908 16.6702 8.11208 16.9211 8.53232 17.1684C8.95264 17.4154 9.44162 17.6169 9.99953 17.7728C10.5574 17.9288 11.1003 17.9914 11.6284 17.9612H12.9115C13.1717 17.9382 13.3689 17.8545 13.5029 17.7101L13.5473 17.653C13.5771 17.6076 13.6051 17.5371 13.6309 17.4422C13.657 17.3471 13.6699 17.2424 13.6699 17.1285C13.6623 16.8016 13.6867 16.5069 13.7423 16.2446C13.7979 15.9823 13.8613 15.7846 13.9322 15.6514C14.003 15.5184 14.083 15.4061 14.172 15.3151C14.2611 15.2239 14.3247 15.1686 14.362 15.1496C14.399 15.1305 14.4286 15.1175 14.4509 15.1097C14.6294 15.0489 14.8395 15.1078 15.0815 15.2866C15.3232 15.4654 15.55 15.686 15.7621 15.9483C15.9741 16.2108 16.2288 16.5053 16.5263 16.8322C16.8239 17.1593 17.0842 17.4024 17.3072 17.5623L17.5303 17.6992C17.6793 17.7905 17.8727 17.8742 18.1107 17.9502C18.3483 18.0262 18.5566 18.0452 18.7353 18.0072L21.5914 17.9617C21.8739 17.9617 22.0937 17.9139 22.2496 17.819C22.4059 17.7239 22.4987 17.6192 22.5286 17.5053C22.5585 17.3913 22.5601 17.2619 22.5343 17.1173C22.5078 16.973 22.4817 16.8721 22.4558 16.8151Z" />
</svg>
