<?xml version="1.0" standalone="no"?>
<!DOCTYPE svg PUBLIC "-//W3C//DTD SVG 20010904//EN"
 "http://www.w3.org/TR/2001/REC-SVG-20010904/DTD/svg10.dtd">
<svg version="1.0" xmlns="http://www.w3.org/2000/svg"
 width="700.000000pt" height="700.000000pt" viewBox="0 0 700.000000 700.000000"
 preserveAspectRatio="xMidYMid meet">
<metadata>
Created by potrace 1.14, written by Peter Selinger 2001-2017
</metadata>
<g transform="translate(0.000000,700.000000) scale(0.100000,-0.100000)"
fill="#000000" stroke="none">
<path d="M1389 5962 l-77 -3 2 -1027 1 -1027 205 0 c113 -1 210 1 216 2 8 3
11 190 12 641 0 779 -3 695 24 652 12 -19 25 -37 28 -40 3 -3 22 -30 43 -60
52 -78 119 -175 223 -325 50 -71 112 -161 139 -200 27 -38 52 -74 57 -80 5 -6
81 -10 180 -10 l171 -1 29 41 c31 42 123 174 351 505 76 110 140 200 141 200
1 0 1 -291 1 -647 -1 -357 1 -655 4 -663 5 -13 39 -15 219 -15 l212 0 0 1027
0 1028 -25 0 c-36 1 -253 1 -337 0 l-73 0 -100 -142 c-55 -78 -122 -174 -150
-213 -27 -40 -138 -196 -245 -348 -181 -257 -196 -275 -211 -259 -14 15 -212
294 -566 799 l-114 162 -142 3 c-78 2 -176 2 -218 0z"/>
<path d="M3948 5962 l-118 -3 0 -2459 0 -2460 204 0 204 0 108 142 c59 79 171
226 249 328 78 102 206 271 285 375 79 105 146 192 149 195 3 3 53 68 111 145
l105 140 3 -663 2 -662 218 0 217 0 0 2458 0 2457 -119 5 c-65 3 -157 3 -205
1 l-86 -3 -290 -395 c-159 -217 -327 -445 -373 -506 -45 -62 -139 -190 -208
-284 -69 -95 -129 -171 -133 -169 -3 2 -6 308 -6 679 l1 676 -101 3 c-55 2
-153 2 -217 0z m1316 -1764 c-1 -552 -2 -1005 -3 -1008 0 -3 -17 18 -36 45
-20 28 -44 61 -55 75 -54 72 -396 535 -523 708 l-120 163 34 47 c18 26 125
175 238 332 199 277 345 481 379 529 30 42 83 111 85 111 1 0 1 -451 1 -1002z
m-907 -496 c40 -53 108 -142 150 -197 386 -500 535 -695 535 -700 0 -8 -765
-1004 -772 -1004 -3 -1 -5 451 -5 1003 0 665 3 1002 10 999 6 -2 43 -48 82
-101z"/>
</g>
</svg>
