<svg id="logo" width="127" height="36" viewBox="0 0 127 36" fill="none" xmlns="http://www.w3.org/2000/svg">
<path d="M68.6118 36V20.9647H81.3177V24.1412H71.7883V26.8941H80.6824V30.0706H71.7883V32.8235H81.3177V36H68.6118Z" fill="black"/>
<path d="M98.4707 36V20.9647H111.177V24.1412H101.647V26.8941H110.541V30.0706H101.647V32.8235H111.177V36H98.4707Z" fill="black"/>
<path d="M48.918 20.9647V25.6235L51.8827 28.4824L48.918 31.3412V36H52.0944V33.0353L55.0591 30.0706H56.3297V36H59.5062V30.0706H60.7768L63.7415 33.0353V36H66.918V31.3412L63.9533 28.4824L66.918 25.4118V20.9647H63.7415V23.9294L60.7768 26.8941H59.5062V20.9647H56.3297V26.8941H55.0591L52.0944 23.9294V20.9647H48.918Z" fill="black"/>
<path d="M36.8474 20.9647H33.6709V36H36.8474V30.0706H44.0474V36H47.2238V20.9647H44.0474V26.8941H36.8474V20.9647Z" fill="black"/>
<path d="M86.1882 20.9647H83.0117V36H86.1882V30.0706H93.3882V36H96.5647V20.9647H93.3882V26.8941H86.1882V20.9647Z" fill="black"/>
<path fill-rule="evenodd" clip-rule="evenodd" d="M79.6235 9.10588V1.48235L81.1059 0H93.1765V15.0353H90V10.5882H85.5529L82.8 13.3412V15.0353H79.6235V12.0706L81.1059 10.4824L79.6235 9.10588ZM82.8 3.17648V7.41177H90V3.17648H82.8Z" fill="black"/>
<path d="M33.8823 13.7647V1.48235L35.3647 0H45.7411L47.2235 1.69412V4.65882H44.2588V3.17647H36.847V11.8588H44.2588V10.5882H47.2235V13.5529L45.7411 15.0353H35.3647L33.8823 13.7647Z" fill="black"/>
<path d="M49.1294 13.7647V1.48235L50.6117 0H60.9882L62.4706 1.69412V4.65882H59.5059V3.17647H52.0941V11.8588H59.5059V10.5882H62.4706V13.5529L60.9882 15.0353H50.6117L49.1294 13.7647Z" fill="black"/>
<path fill-rule="evenodd" clip-rule="evenodd" d="M21.6003 0H18.4238V36H21.3885L28.8003 26.2588V36H31.9768V0H29.0121L21.6003 10.0588V0ZM28.9061 20.3294V5.50591L23.5061 13.0236L28.9061 20.3294ZM27.3179 23.0824L21.6002 15.6706V30.4941L27.3179 23.0824Z" fill="black"/>
<path d="M0 15.0353V0H3.17647L8.25882 7.2L13.3412 0H16.5176V15.0353H13.3412V5.29412L9.52941 10.8H6.98824L3.17647 5.29412V15.0353H0Z" fill="black"/>
<path d="M67.341 0H64.1646V15.0353H67.341L74.541 5.50588V15.0353H77.7175V0H74.7528L67.341 9.74118V0Z" fill="black"/>
<path fill-rule="evenodd" clip-rule="evenodd" d="M116.259 36.0001H113.083V20.9648H124.941L126.424 22.4472V30.0707L124.941 31.5531H116.259V36.0001ZM123.459 28.5883V23.9295H119.647L119.012 23.506H116.259V28.5883H123.459Z" fill="black"/>
</svg>
