<svg width="48" height="48" viewBox="0 0 48 48" fill="none" xmlns="http://www.w3.org/2000/svg">
<path opacity="0.4" d="M8.80868 27.2198C7.03034 26.2896 6 25.1848 6 24C6 20.6862 14.0589 18 24 18C33.9412 18 42 20.6862 42 24C42 25.4288 40.5016 26.741 38 27.7716" stroke="white" stroke-width="2" stroke-linecap="round" stroke-linejoin="round"/>
<path d="M24 22.0202L24.02 21.998" stroke="white" stroke-width="2" stroke-linecap="round" stroke-linejoin="round"/>
<path opacity="0.4" d="M33.7668 11.9991C33.7574 9.95315 33.2412 8.50529 32.1726 7.96079C29.22 6.45639 23.1678 12.4174 18.6547 21.2749C14.1415 30.1325 12.8763 38.5327 15.8289 40.0371C16.8837 40.5745 18.3342 40.1591 19.9688 38.9991" stroke="white" stroke-width="2" stroke-linecap="round" stroke-linejoin="round"/>
<path d="M19.2033 8.50235C17.8826 7.73065 16.7159 7.50885 15.8289 7.96079C12.8763 9.46519 14.1415 17.8652 18.6546 26.7229C23.1679 35.5805 29.2199 41.5415 32.1725 40.0371C34.7969 38.6999 34.0891 31.9145 30.7297 24.2023" stroke="white" stroke-width="2" stroke-linecap="round" stroke-linejoin="round"/>
</svg>
