<svg width="48" height="48" viewBox="0 0 48 48" fill="none" xmlns="http://www.w3.org/2000/svg">
<path opacity="0.4" d="M35.7773 21.7934C38.5673 21.4014 40.7153 19.0094 40.7213 16.1114C40.7213 13.2554 38.6393 10.8874 35.9093 10.4394" stroke="#28BE46" stroke-width="2" stroke-linecap="round" stroke-linejoin="round"/>
<path d="M39.457 28.5006C42.159 28.9046 44.045 29.8506 44.045 31.8006C44.045 33.1426 43.157 34.0146 41.721 34.5626" stroke="#28BE46" stroke-width="2" stroke-linecap="round" stroke-linejoin="round"/>
<path fill-rule="evenodd" clip-rule="evenodd" d="M23.7735 29.3276C17.3455 29.3276 11.8555 30.3016 11.8555 34.1916C11.8555 38.0796 17.3115 39.0816 23.7735 39.0816C30.2015 39.0816 35.6895 38.1176 35.6895 34.2256C35.6895 30.3336 30.2355 29.3276 23.7735 29.3276Z" stroke="#28BE46" stroke-width="2" stroke-linecap="round" stroke-linejoin="round"/>
<path opacity="0.4" fill-rule="evenodd" clip-rule="evenodd" d="M23.7748 23.7758C27.9928 23.7758 31.4128 20.3578 31.4128 16.1378C31.4128 11.9198 27.9928 8.49979 23.7748 8.49979C19.5568 8.49979 16.1368 11.9198 16.1368 16.1378C16.1208 20.3418 19.5148 23.7618 23.7188 23.7758H23.7748Z" stroke="#28BE46" stroke-width="2" stroke-linecap="round" stroke-linejoin="round"/>
<path opacity="0.4" d="M11.7682 21.7934C8.97622 21.4014 6.83022 19.0094 6.82422 16.1114C6.82422 13.2554 8.90622 10.8874 11.6362 10.4394" stroke="#28BE46" stroke-width="2" stroke-linecap="round" stroke-linejoin="round"/>
<path d="M8.088 28.5006C5.386 28.9046 3.5 29.8506 3.5 31.8006C3.5 33.1426 4.388 34.0146 5.824 34.5626" stroke="#28BE46" stroke-width="2" stroke-linecap="round" stroke-linejoin="round"/>
</svg>
